<svg width="13" height="17" viewBox="0 0 13 17" fill="none" xmlns="http://www.w3.org/2000/svg">
<path d="M6.5 8.5C6.94687 8.5 7.32943 8.34333 7.64766 8.03C7.96589 7.71667 8.125 7.34 8.125 6.9C8.125 6.46 7.96589 6.08333 7.64766 5.77C7.32943 5.45667 6.94687 5.3 6.5 5.3C6.05312 5.3 5.67057 5.45667 5.35234 5.77C5.03411 6.08333 4.875 6.46 4.875 6.9C4.875 7.34 5.03411 7.71667 5.35234 8.03C5.67057 8.34333 6.05312 8.5 6.5 8.5ZM6.5 14.38C8.15208 12.8867 9.3776 11.53 10.1766 10.31C10.9755 9.09 11.375 8.00667 11.375 7.06C11.375 5.60667 10.9044 4.41667 9.96328 3.49C9.02213 2.56333 7.86771 2.1 6.5 2.1C5.13229 2.1 3.97786 2.56333 3.03672 3.49C2.09557 4.41667 1.625 5.60667 1.625 7.06C1.625 8.00667 2.02448 9.09 2.82344 10.31C3.6224 11.53 4.84792 12.8867 6.5 14.38ZM6.5 16.5C4.31979 14.6733 2.69141 12.9767 1.61484 11.41C0.538281 9.84333 0 8.39333 0 7.06C0 5.06 0.653385 3.46667 1.96016 2.28C3.26693 1.09333 4.78021 0.5 6.5 0.5C8.21979 0.5 9.73307 1.09333 11.0398 2.28C12.3466 3.46667 13 5.06 13 7.06C13 8.39333 12.4617 9.84333 11.3852 11.41C10.3086 12.9767 8.68021 14.6733 6.5 16.5Z" fill="#94A3B8"/>
</svg>
